<svg width="44" height="44" viewBox="0 0 44 44" fill="none" xmlns="http://www.w3.org/2000/svg">
<rect x="22.0737" y="-0.171143" width="30.4908" height="30.4908" rx="1.88327" transform="rotate(45 22.0737 -0.171143)" fill="#1A1B5B"/>
<path d="M20.4692 1.43098C20.4744 1.42576 20.4791 1.4202 20.4836 1.41433C20.5506 1.32646 21.1226 0.610776 21.9794 0.61077L22.0122 11.7982C22.0137 12.308 21.8079 12.7971 21.4429 13.1529C19.2348 15.3053 17.7739 16.7293 15.588 18.8601C15.2171 19.2216 15.2072 19.8153 15.5665 20.1883L18.7278 23.4697C19.0912 23.847 19.6927 23.8551 20.0662 23.4878L23.8441 19.7727C24.2185 19.4045 24.8217 19.4137 25.1847 19.7931L28.3504 23.1021C28.7046 23.4723 28.6978 24.0578 28.335 24.4196L22.2911 30.449C22.1141 30.6257 22.0145 30.8655 22.0145 31.1157V42.1602C21.1672 42.1602 20.5377 41.4589 20.4856 41.3991C20.483 41.3961 20.4807 41.3937 20.4779 41.3909L1.7905 22.7782C1.05253 22.0432 1.05133 20.8487 1.78784 20.1122L20.4692 1.43098Z" fill="#8F87F7"/>
</svg>
